<mxfile host="app.diagrams.net" modified="2022-11-13T14:16:21.025Z" agent="5.0 (Windows NT 10.0; Win64; x64) AppleWebKit/537.36 (KHTML, like Gecko) Chrome/107.0.0.0 Safari/537.36" etag="h7KF-WGKki94NMRi3Iu5" version="20.5.3" type="github">
  <diagram id="vuQVMBfrPxE5bO-7G8xc" name="Sida-1">
    <mxGraphModel dx="2249" dy="697" grid="1" gridSize="10" guides="1" tooltips="1" connect="1" arrows="1" fold="1" page="1" pageScale="1" pageWidth="827" pageHeight="1169" math="0" shadow="0">
      <root>
        <mxCell id="0" />
        <mxCell id="1" parent="0" />
        <mxCell id="wk74jAJ-ABhIwKJBEX5y-1" value="QuestionModel" style="swimlane;fontStyle=2;align=center;verticalAlign=top;childLayout=stackLayout;horizontal=1;startSize=26;horizontalStack=0;resizeParent=1;resizeLast=0;collapsible=1;marginBottom=0;rounded=0;shadow=0;strokeWidth=1;" vertex="1" parent="1">
          <mxGeometry x="-210" y="190" width="160" height="104" as="geometry">
            <mxRectangle x="230" y="140" width="160" height="26" as="alternateBounds" />
          </mxGeometry>
        </mxCell>
        <mxCell id="wk74jAJ-ABhIwKJBEX5y-2" value="+Statement : string" style="text;align=left;verticalAlign=top;spacingLeft=4;spacingRight=4;overflow=hidden;rotatable=0;points=[[0,0.5],[1,0.5]];portConstraint=eastwest;" vertex="1" parent="wk74jAJ-ABhIwKJBEX5y-1">
          <mxGeometry y="26" width="160" height="26" as="geometry" />
        </mxCell>
        <mxCell id="wk74jAJ-ABhIwKJBEX5y-3" value="+Answers[] : string" style="text;align=left;verticalAlign=top;spacingLeft=4;spacingRight=4;overflow=hidden;rotatable=0;points=[[0,0.5],[1,0.5]];portConstraint=eastwest;rounded=0;shadow=0;html=0;" vertex="1" parent="wk74jAJ-ABhIwKJBEX5y-1">
          <mxGeometry y="52" width="160" height="26" as="geometry" />
        </mxCell>
        <mxCell id="wk74jAJ-ABhIwKJBEX5y-4" value="+CorrectAnswer : int" style="text;align=left;verticalAlign=top;spacingLeft=4;spacingRight=4;overflow=hidden;rotatable=0;points=[[0,0.5],[1,0.5]];portConstraint=eastwest;rounded=0;shadow=0;html=0;" vertex="1" parent="wk74jAJ-ABhIwKJBEX5y-1">
          <mxGeometry y="78" width="160" height="26" as="geometry" />
        </mxCell>
        <mxCell id="wk74jAJ-ABhIwKJBEX5y-5" value="&lt;h1&gt;Labb 3 classdiagram - Create quiz&lt;/h1&gt;" style="text;html=1;strokeColor=none;fillColor=none;spacing=5;spacingTop=-20;whiteSpace=wrap;overflow=hidden;rounded=0;" vertex="1" parent="1">
          <mxGeometry x="-800" y="30" width="650" height="50" as="geometry" />
        </mxCell>
        <mxCell id="wk74jAJ-ABhIwKJBEX5y-6" value="&lt;h1&gt;Views&lt;/h1&gt;" style="text;html=1;strokeColor=none;fillColor=none;spacing=5;spacingTop=-20;whiteSpace=wrap;overflow=hidden;rounded=0;align=center;" vertex="1" parent="1">
          <mxGeometry x="-740" y="110" width="100" height="40" as="geometry" />
        </mxCell>
        <mxCell id="wk74jAJ-ABhIwKJBEX5y-7" value="&lt;h1&gt;ViewModels&lt;/h1&gt;" style="text;html=1;strokeColor=none;fillColor=none;spacing=5;spacingTop=-20;whiteSpace=wrap;overflow=hidden;rounded=0;align=center;" vertex="1" parent="1">
          <mxGeometry x="-518" y="110" width="210" height="40" as="geometry" />
        </mxCell>
        <mxCell id="wk74jAJ-ABhIwKJBEX5y-8" value="&lt;h1&gt;Models&lt;/h1&gt;" style="text;html=1;strokeColor=none;fillColor=none;spacing=5;spacingTop=-20;whiteSpace=wrap;overflow=hidden;rounded=0;align=center;" vertex="1" parent="1">
          <mxGeometry x="-180" y="110" width="100" height="40" as="geometry" />
        </mxCell>
        <mxCell id="wk74jAJ-ABhIwKJBEX5y-9" value="QuizModel" style="swimlane;fontStyle=2;align=center;verticalAlign=top;childLayout=stackLayout;horizontal=1;startSize=26;horizontalStack=0;resizeParent=1;resizeLast=0;collapsible=1;marginBottom=0;rounded=0;shadow=0;strokeWidth=1;" vertex="1" parent="1">
          <mxGeometry x="-250" y="320" width="200" height="328" as="geometry">
            <mxRectangle x="230" y="140" width="160" height="26" as="alternateBounds" />
          </mxGeometry>
        </mxCell>
        <mxCell id="wk74jAJ-ABhIwKJBEX5y-10" value="+IEnumerable &lt;QuestionModel&gt;" style="text;align=left;verticalAlign=top;spacingLeft=4;spacingRight=4;overflow=hidden;rotatable=0;points=[[0,0.5],[1,0.5]];portConstraint=eastwest;" vertex="1" parent="wk74jAJ-ABhIwKJBEX5y-9">
          <mxGeometry y="26" width="200" height="26" as="geometry" />
        </mxCell>
        <mxCell id="wk74jAJ-ABhIwKJBEX5y-11" value="+Title : string" style="text;align=left;verticalAlign=top;spacingLeft=4;spacingRight=4;overflow=hidden;rotatable=0;points=[[0,0.5],[1,0.5]];portConstraint=eastwest;rounded=0;shadow=0;html=0;" vertex="1" parent="wk74jAJ-ABhIwKJBEX5y-9">
          <mxGeometry y="52" width="200" height="26" as="geometry" />
        </mxCell>
        <mxCell id="wk74jAJ-ABhIwKJBEX5y-12" value="+QuestionIndex : int" style="text;align=left;verticalAlign=top;spacingLeft=4;spacingRight=4;overflow=hidden;rotatable=0;points=[[0,0.5],[1,0.5]];portConstraint=eastwest;rounded=0;shadow=0;html=0;" vertex="1" parent="wk74jAJ-ABhIwKJBEX5y-9">
          <mxGeometry y="78" width="200" height="32" as="geometry" />
        </mxCell>
        <mxCell id="wk74jAJ-ABhIwKJBEX5y-13" value="" style="line;strokeWidth=1;fillColor=none;align=left;verticalAlign=middle;spacingTop=-1;spacingLeft=3;spacingRight=3;rotatable=0;labelPosition=right;points=[];portConstraint=eastwest;strokeColor=inherit;" vertex="1" parent="wk74jAJ-ABhIwKJBEX5y-9">
          <mxGeometry y="110" width="200" height="8" as="geometry" />
        </mxCell>
        <mxCell id="wk74jAJ-ABhIwKJBEX5y-14" value="GetQuestions()" style="text;html=1;align=center;verticalAlign=middle;resizable=0;points=[];autosize=1;strokeColor=none;fillColor=none;" vertex="1" parent="wk74jAJ-ABhIwKJBEX5y-9">
          <mxGeometry y="118" width="200" height="30" as="geometry" />
        </mxCell>
        <mxCell id="wk74jAJ-ABhIwKJBEX5y-15" value="GetTitles()" style="text;html=1;align=center;verticalAlign=middle;resizable=0;points=[];autosize=1;strokeColor=none;fillColor=none;" vertex="1" parent="wk74jAJ-ABhIwKJBEX5y-9">
          <mxGeometry y="148" width="200" height="30" as="geometry" />
        </mxCell>
        <mxCell id="wk74jAJ-ABhIwKJBEX5y-16" value="GetRandomQuestion()" style="text;html=1;align=center;verticalAlign=middle;resizable=0;points=[];autosize=1;strokeColor=none;fillColor=none;" vertex="1" parent="wk74jAJ-ABhIwKJBEX5y-9">
          <mxGeometry y="178" width="200" height="30" as="geometry" />
        </mxCell>
        <mxCell id="wk74jAJ-ABhIwKJBEX5y-17" value="AddQuestion()" style="text;html=1;align=center;verticalAlign=middle;resizable=0;points=[];autosize=1;strokeColor=none;fillColor=none;" vertex="1" parent="wk74jAJ-ABhIwKJBEX5y-9">
          <mxGeometry y="208" width="200" height="30" as="geometry" />
        </mxCell>
        <mxCell id="wk74jAJ-ABhIwKJBEX5y-18" value="EditQuestion()" style="text;html=1;align=center;verticalAlign=middle;resizable=0;points=[];autosize=1;strokeColor=none;fillColor=none;" vertex="1" parent="wk74jAJ-ABhIwKJBEX5y-9">
          <mxGeometry y="238" width="200" height="30" as="geometry" />
        </mxCell>
        <mxCell id="wk74jAJ-ABhIwKJBEX5y-19" value="RemoveQuestion()" style="text;html=1;align=center;verticalAlign=middle;resizable=0;points=[];autosize=1;strokeColor=none;fillColor=none;" vertex="1" parent="wk74jAJ-ABhIwKJBEX5y-9">
          <mxGeometry y="268" width="200" height="30" as="geometry" />
        </mxCell>
        <mxCell id="wk74jAJ-ABhIwKJBEX5y-20" value="CreateDirectory()" style="text;html=1;align=center;verticalAlign=middle;resizable=0;points=[];autosize=1;strokeColor=none;fillColor=none;" vertex="1" parent="wk74jAJ-ABhIwKJBEX5y-9">
          <mxGeometry y="298" width="200" height="30" as="geometry" />
        </mxCell>
        <mxCell id="wk74jAJ-ABhIwKJBEX5y-21" value="EditSelectedQuizViewModel" style="swimlane;fontStyle=2;align=center;verticalAlign=top;childLayout=stackLayout;horizontal=1;startSize=26;horizontalStack=0;resizeParent=1;resizeLast=0;collapsible=1;marginBottom=0;rounded=0;shadow=0;strokeWidth=1;" vertex="1" parent="1">
          <mxGeometry x="-520" y="190" width="202" height="620" as="geometry">
            <mxRectangle x="230" y="140" width="160" height="26" as="alternateBounds" />
          </mxGeometry>
        </mxCell>
        <mxCell id="wk74jAJ-ABhIwKJBEX5y-22" value="+SelectedQuiz : string" style="text;align=left;verticalAlign=top;spacingLeft=4;spacingRight=4;overflow=hidden;rotatable=0;points=[[0,0.5],[1,0.5]];portConstraint=eastwest;" vertex="1" parent="wk74jAJ-ABhIwKJBEX5y-21">
          <mxGeometry y="26" width="202" height="26" as="geometry" />
        </mxCell>
        <mxCell id="wk74jAJ-ABhIwKJBEX5y-23" value="+Question : string" style="text;align=left;verticalAlign=top;spacingLeft=4;spacingRight=4;overflow=hidden;rotatable=0;points=[[0,0.5],[1,0.5]];portConstraint=eastwest;rounded=0;shadow=0;html=0;" vertex="1" parent="wk74jAJ-ABhIwKJBEX5y-21">
          <mxGeometry y="52" width="202" height="26" as="geometry" />
        </mxCell>
        <mxCell id="wk74jAJ-ABhIwKJBEX5y-24" value="+AnswerOne : string" style="text;align=left;verticalAlign=top;spacingLeft=4;spacingRight=4;overflow=hidden;rotatable=0;points=[[0,0.5],[1,0.5]];portConstraint=eastwest;rounded=0;shadow=0;html=0;" vertex="1" parent="wk74jAJ-ABhIwKJBEX5y-21">
          <mxGeometry y="78" width="202" height="26" as="geometry" />
        </mxCell>
        <mxCell id="wk74jAJ-ABhIwKJBEX5y-25" value="+AnswerTwo : string" style="text;align=left;verticalAlign=top;spacingLeft=4;spacingRight=4;overflow=hidden;rotatable=0;points=[[0,0.5],[1,0.5]];portConstraint=eastwest;rounded=0;shadow=0;html=0;" vertex="1" parent="wk74jAJ-ABhIwKJBEX5y-21">
          <mxGeometry y="104" width="202" height="26" as="geometry" />
        </mxCell>
        <mxCell id="wk74jAJ-ABhIwKJBEX5y-26" value="+AnswerThree : string" style="text;align=left;verticalAlign=top;spacingLeft=4;spacingRight=4;overflow=hidden;rotatable=0;points=[[0,0.5],[1,0.5]];portConstraint=eastwest;rounded=0;shadow=0;html=0;" vertex="1" parent="wk74jAJ-ABhIwKJBEX5y-21">
          <mxGeometry y="130" width="202" height="26" as="geometry" />
        </mxCell>
        <mxCell id="wk74jAJ-ABhIwKJBEX5y-27" value="+DisplayHint : string" style="text;align=left;verticalAlign=top;spacingLeft=4;spacingRight=4;overflow=hidden;rotatable=0;points=[[0,0.5],[1,0.5]];portConstraint=eastwest;rounded=0;shadow=0;html=0;" vertex="1" parent="wk74jAJ-ABhIwKJBEX5y-21">
          <mxGeometry y="156" width="202" height="26" as="geometry" />
        </mxCell>
        <mxCell id="wk74jAJ-ABhIwKJBEX5y-28" value="+Answers[3] : string" style="text;align=left;verticalAlign=top;spacingLeft=4;spacingRight=4;overflow=hidden;rotatable=0;points=[[0,0.5],[1,0.5]];portConstraint=eastwest;rounded=0;shadow=0;html=0;" vertex="1" parent="wk74jAJ-ABhIwKJBEX5y-21">
          <mxGeometry y="182" width="202" height="26" as="geometry" />
        </mxCell>
        <mxCell id="wk74jAJ-ABhIwKJBEX5y-29" value="+CheckBoxOne : bool" style="text;align=left;verticalAlign=top;spacingLeft=4;spacingRight=4;overflow=hidden;rotatable=0;points=[[0,0.5],[1,0.5]];portConstraint=eastwest;rounded=0;shadow=0;html=0;" vertex="1" parent="wk74jAJ-ABhIwKJBEX5y-21">
          <mxGeometry y="208" width="202" height="26" as="geometry" />
        </mxCell>
        <mxCell id="wk74jAJ-ABhIwKJBEX5y-30" value="+CheckBoxTwo : bool" style="text;align=left;verticalAlign=top;spacingLeft=4;spacingRight=4;overflow=hidden;rotatable=0;points=[[0,0.5],[1,0.5]];portConstraint=eastwest;rounded=0;shadow=0;html=0;" vertex="1" parent="wk74jAJ-ABhIwKJBEX5y-21">
          <mxGeometry y="234" width="202" height="26" as="geometry" />
        </mxCell>
        <mxCell id="wk74jAJ-ABhIwKJBEX5y-31" value="+CheckBoxThree : bool" style="text;align=left;verticalAlign=top;spacingLeft=4;spacingRight=4;overflow=hidden;rotatable=0;points=[[0,0.5],[1,0.5]];portConstraint=eastwest;rounded=0;shadow=0;html=0;" vertex="1" parent="wk74jAJ-ABhIwKJBEX5y-21">
          <mxGeometry y="260" width="202" height="26" as="geometry" />
        </mxCell>
        <mxCell id="wk74jAJ-ABhIwKJBEX5y-32" value="+SelectedQuestionIndex : int" style="text;align=left;verticalAlign=top;spacingLeft=4;spacingRight=4;overflow=hidden;rotatable=0;points=[[0,0.5],[1,0.5]];portConstraint=eastwest;rounded=0;shadow=0;html=0;" vertex="1" parent="wk74jAJ-ABhIwKJBEX5y-21">
          <mxGeometry y="286" width="202" height="26" as="geometry" />
        </mxCell>
        <mxCell id="wk74jAJ-ABhIwKJBEX5y-33" value="+CorrectAnswer : int" style="text;align=left;verticalAlign=top;spacingLeft=4;spacingRight=4;overflow=hidden;rotatable=0;points=[[0,0.5],[1,0.5]];portConstraint=eastwest;rounded=0;shadow=0;html=0;" vertex="1" parent="wk74jAJ-ABhIwKJBEX5y-21">
          <mxGeometry y="312" width="202" height="26" as="geometry" />
        </mxCell>
        <mxCell id="wk74jAJ-ABhIwKJBEX5y-34" value="" style="line;strokeWidth=1;fillColor=none;align=left;verticalAlign=middle;spacingTop=-1;spacingLeft=3;spacingRight=3;rotatable=0;labelPosition=right;points=[];portConstraint=eastwest;strokeColor=inherit;" vertex="1" parent="wk74jAJ-ABhIwKJBEX5y-21">
          <mxGeometry y="338" width="202" height="8" as="geometry" />
        </mxCell>
        <mxCell id="wk74jAJ-ABhIwKJBEX5y-35" value="OnMainMenuExecuted()" style="text;html=1;align=center;verticalAlign=middle;resizable=0;points=[];autosize=1;strokeColor=none;fillColor=none;" vertex="1" parent="wk74jAJ-ABhIwKJBEX5y-21">
          <mxGeometry y="346" width="202" height="30" as="geometry" />
        </mxCell>
        <mxCell id="wk74jAJ-ABhIwKJBEX5y-36" value="OnSaveQuizExecuted()" style="text;html=1;align=center;verticalAlign=middle;resizable=0;points=[];autosize=1;strokeColor=none;fillColor=none;" vertex="1" parent="wk74jAJ-ABhIwKJBEX5y-21">
          <mxGeometry y="376" width="202" height="30" as="geometry" />
        </mxCell>
        <mxCell id="wk74jAJ-ABhIwKJBEX5y-37" value="OnQuestionRemoved()" style="text;html=1;align=center;verticalAlign=middle;resizable=0;points=[];autosize=1;strokeColor=none;fillColor=none;" vertex="1" parent="wk74jAJ-ABhIwKJBEX5y-21">
          <mxGeometry y="406" width="202" height="30" as="geometry" />
        </mxCell>
        <mxCell id="wk74jAJ-ABhIwKJBEX5y-38" value="OnEditExecuted()" style="text;html=1;align=center;verticalAlign=middle;resizable=0;points=[];autosize=1;strokeColor=none;fillColor=none;" vertex="1" parent="wk74jAJ-ABhIwKJBEX5y-21">
          <mxGeometry y="436" width="202" height="30" as="geometry" />
        </mxCell>
        <mxCell id="wk74jAJ-ABhIwKJBEX5y-39" value="UpdateQuizList()" style="text;html=1;align=center;verticalAlign=middle;resizable=0;points=[];autosize=1;strokeColor=none;fillColor=none;" vertex="1" parent="wk74jAJ-ABhIwKJBEX5y-21">
          <mxGeometry y="466" width="202" height="30" as="geometry" />
        </mxCell>
        <mxCell id="wk74jAJ-ABhIwKJBEX5y-40" value="IsQuestionComplete()" style="text;html=1;align=center;verticalAlign=middle;resizable=0;points=[];autosize=1;strokeColor=none;fillColor=none;" vertex="1" parent="wk74jAJ-ABhIwKJBEX5y-21">
          <mxGeometry y="496" width="202" height="30" as="geometry" />
        </mxCell>
        <mxCell id="wk74jAJ-ABhIwKJBEX5y-41" value="IsQuizComplete()" style="text;html=1;align=center;verticalAlign=middle;resizable=0;points=[];autosize=1;strokeColor=none;fillColor=none;" vertex="1" parent="wk74jAJ-ABhIwKJBEX5y-21">
          <mxGeometry y="526" width="202" height="30" as="geometry" />
        </mxCell>
        <mxCell id="wk74jAJ-ABhIwKJBEX5y-42" value="PopulateProperties(int index)" style="text;html=1;align=center;verticalAlign=middle;resizable=0;points=[];autosize=1;strokeColor=none;fillColor=none;" vertex="1" parent="wk74jAJ-ABhIwKJBEX5y-21">
          <mxGeometry y="556" width="202" height="30" as="geometry" />
        </mxCell>
        <mxCell id="wk74jAJ-ABhIwKJBEX5y-43" value="CheckCorrectAnswer()" style="text;html=1;align=center;verticalAlign=middle;resizable=0;points=[];autosize=1;strokeColor=none;fillColor=none;" vertex="1" parent="wk74jAJ-ABhIwKJBEX5y-21">
          <mxGeometry y="586" width="202" height="30" as="geometry" />
        </mxCell>
        <mxCell id="wk74jAJ-ABhIwKJBEX5y-44" style="edgeStyle=orthogonalEdgeStyle;rounded=0;orthogonalLoop=1;jettySize=auto;html=1;entryX=0;entryY=0.5;entryDx=0;entryDy=0;" edge="1" parent="1" source="wk74jAJ-ABhIwKJBEX5y-24" target="wk74jAJ-ABhIwKJBEX5y-4">
          <mxGeometry relative="1" as="geometry" />
        </mxCell>
        <mxCell id="wk74jAJ-ABhIwKJBEX5y-45" value="EditSelectedQuizView" style="swimlane;fontStyle=2;align=center;verticalAlign=top;childLayout=stackLayout;horizontal=1;startSize=26;horizontalStack=0;resizeParent=1;resizeLast=0;collapsible=1;marginBottom=0;rounded=0;shadow=0;strokeWidth=1;" vertex="1" parent="1">
          <mxGeometry x="-800" y="190" width="220" height="60" as="geometry">
            <mxRectangle x="230" y="140" width="160" height="26" as="alternateBounds" />
          </mxGeometry>
        </mxCell>
        <mxCell id="wk74jAJ-ABhIwKJBEX5y-46" value="Bindings to properties and buttons" style="text;html=1;align=center;verticalAlign=middle;resizable=0;points=[];autosize=1;strokeColor=none;fillColor=none;" vertex="1" parent="wk74jAJ-ABhIwKJBEX5y-45">
          <mxGeometry y="26" width="220" height="30" as="geometry" />
        </mxCell>
        <mxCell id="wk74jAJ-ABhIwKJBEX5y-47" style="edgeStyle=orthogonalEdgeStyle;rounded=0;orthogonalLoop=1;jettySize=auto;html=1;entryX=1;entryY=0.5;entryDx=0;entryDy=0;" edge="1" parent="1" source="wk74jAJ-ABhIwKJBEX5y-22">
          <mxGeometry relative="1" as="geometry">
            <mxPoint x="-580" y="229" as="targetPoint" />
          </mxGeometry>
        </mxCell>
        <mxCell id="wk74jAJ-ABhIwKJBEX5y-48" style="edgeStyle=orthogonalEdgeStyle;rounded=0;orthogonalLoop=1;jettySize=auto;html=1;" edge="1" parent="1" source="wk74jAJ-ABhIwKJBEX5y-3" target="wk74jAJ-ABhIwKJBEX5y-23">
          <mxGeometry relative="1" as="geometry">
            <mxPoint x="-310" y="254.9999999999999" as="targetPoint" />
          </mxGeometry>
        </mxCell>
        <mxCell id="wk74jAJ-ABhIwKJBEX5y-49" style="edgeStyle=orthogonalEdgeStyle;rounded=0;orthogonalLoop=1;jettySize=auto;html=1;entryX=1;entryY=0.5;entryDx=0;entryDy=0;" edge="1" parent="1" source="wk74jAJ-ABhIwKJBEX5y-10" target="wk74jAJ-ABhIwKJBEX5y-27">
          <mxGeometry relative="1" as="geometry" />
        </mxCell>
        <mxCell id="wk74jAJ-ABhIwKJBEX5y-50" style="edgeStyle=orthogonalEdgeStyle;rounded=0;orthogonalLoop=1;jettySize=auto;html=1;entryX=0.007;entryY=0.55;entryDx=0;entryDy=0;entryPerimeter=0;" edge="1" parent="1" source="wk74jAJ-ABhIwKJBEX5y-33" target="wk74jAJ-ABhIwKJBEX5y-16">
          <mxGeometry relative="1" as="geometry" />
        </mxCell>
      </root>
    </mxGraphModel>
  </diagram>
</mxfile>
